<svg width="20" height="20" viewBox="0 0 20 20" fill="none" xmlns="http://www.w3.org/2000/svg">
<path d="M10.4375 0.5C7.9274 0.530456 5.5287 1.54112 3.75366 3.31616C1.97862 5.0912 0.967956 7.4899 0.9375 10C0.967956 12.5101 1.97862 14.9088 3.75366 16.6838C5.5287 18.4589 7.9274 19.4695 10.4375 19.5C12.9476 19.4695 15.3463 18.4589 17.1213 16.6838C18.8964 14.9088 19.907 12.5101 19.9375 10C19.907 7.4899 18.8964 5.0912 17.1213 3.31616C15.3463 1.54112 12.9476 0.530456 10.4375 0.5ZM15.8661 10.6786H11.1161V15.4286H9.75893V10.6786H5.00893V9.32143H9.75893V4.57143H11.1161V9.32143H15.8661V10.6786Z" fill="#4A55B3"/>
</svg>
