<svg width="24" height="26" viewBox="0 0 24 26" fill="none" xmlns="http://www.w3.org/2000/svg">
<path d="M23.8321 18.3723L21.2977 13.6932V8.82143C21.2977 3.95728 17.3404 0 12.4763 0C7.61213 0 3.65485 3.95728 3.65485 8.82143V13.6932L1.12032 18.3722C1.00538 18.5844 0.947528 18.8228 0.952437 19.0641C0.957346 19.3053 1.02484 19.5411 1.14832 19.7485C1.27179 19.9558 1.44701 20.1274 1.6568 20.2467C1.86658 20.3659 2.10374 20.4286 2.34504 20.4286H7.39038C7.37631 20.5829 7.3692 20.7379 7.36908 20.8929C7.36908 22.2474 7.90715 23.5464 8.86493 24.5042C9.8227 25.4619 11.1217 26 12.4762 26C13.8307 26 15.1297 25.4619 16.0875 24.5042C17.0453 23.5464 17.5834 22.2474 17.5834 20.8929C17.5834 20.7362 17.5759 20.5816 17.5621 20.4286H22.6074C22.8487 20.4285 23.0858 20.3658 23.2956 20.2466C23.5053 20.1274 23.6805 19.9557 23.804 19.7484C23.9274 19.5411 23.9949 19.3053 23.9998 19.0641C24.0047 18.8228 23.9469 18.5845 23.832 18.3723H23.8321ZM15.7263 20.8929C15.7266 21.3395 15.635 21.7814 15.4569 22.191C15.2789 22.6006 15.0183 22.9691 14.6915 23.2736C14.3647 23.578 13.9787 23.8118 13.5575 23.9604C13.1363 24.109 12.689 24.1691 12.2435 24.1372C11.798 24.1052 11.3639 23.9817 10.9683 23.7745C10.5727 23.5672 10.224 23.2807 9.94402 22.9327C9.66406 22.5847 9.45883 22.1827 9.34114 21.7519C9.22345 21.321 9.19583 20.8706 9.26 20.4286H15.6925C15.7148 20.5823 15.7261 20.7375 15.7263 20.8929ZM3.12452 18.5714L5.512 14.1639V8.82143C5.512 6.97438 6.24573 5.20299 7.55179 3.89693C8.85785 2.59088 10.6292 1.85714 12.4763 1.85714C14.3233 1.85714 16.0947 2.59088 17.4008 3.89693C18.7068 5.20299 19.4406 6.97438 19.4406 8.82143V14.1639L21.8279 18.5714H3.12452Z" fill="#969BA6"/>
</svg>
