<svg width="26" height="27" viewBox="0 0 26 27" fill="none" xmlns="http://www.w3.org/2000/svg">
<path fill-rule="evenodd" clip-rule="evenodd" d="M1.2024 7.1762C1.97228 6.40631 3.01646 5.9738 4.10524 5.9738H5.47365C6.22941 5.9738 6.84207 6.58646 6.84207 7.34221C6.84207 8.09797 6.22941 8.71063 5.47365 8.71063H4.10524C3.74231 8.71063 3.39425 8.8548 3.13763 9.11143C2.881 9.36805 2.73683 9.71611 2.73683 10.079V22.3948C2.73683 22.7577 2.881 23.1057 3.13763 23.3624C3.39425 23.619 3.74231 23.7632 4.10524 23.7632H16.421C16.7839 23.7632 17.1319 23.619 17.3886 23.3624C17.6452 23.1057 17.7894 22.7577 17.7894 22.3948V21.0263C17.7894 20.2706 18.402 19.6579 19.1578 19.6579C19.9135 19.6579 20.5262 20.2706 20.5262 21.0263V22.3948C20.5262 23.4835 20.0937 24.5277 19.3238 25.2976C18.5539 26.0675 17.5097 26.5 16.421 26.5H4.10524C3.01646 26.5 1.97228 26.0675 1.2024 25.2976C0.432515 24.5277 0 23.4835 0 22.3948V10.079C0 8.99026 0.432515 7.94608 1.2024 7.1762Z" fill="#2E5DBA"/>
<path fill-rule="evenodd" clip-rule="evenodd" d="M18.7591 1.74146C19.5546 0.946551 20.6332 0.5 21.7578 0.5C22.8829 0.5 23.9619 0.946947 24.7575 1.74252C25.5531 2.53809 26 3.61712 26 4.74223C26 5.86681 25.5535 6.94536 24.7586 7.74082L24.7575 7.74194L23.0286 9.47702C22.9805 9.54797 22.9251 9.6154 22.8622 9.67824C22.8006 9.73988 22.7345 9.79441 22.6651 9.84183L13.2851 19.2554C13.0283 19.5131 12.6795 19.6579 12.3157 19.6579H8.21048C7.45473 19.6579 6.84207 19.0453 6.84207 18.2895V14.1843C6.84207 13.8205 6.98691 13.4717 7.2446 13.2149L16.6582 3.83493C16.7056 3.76547 16.7601 3.69941 16.8218 3.63777C16.8846 3.57493 16.952 3.51948 17.023 3.47141L18.7581 1.74252L18.7591 1.74146ZM17.8048 6.55599L9.57889 14.7525V16.9211H11.7475L19.944 8.69525L17.8048 6.55599ZM21.8758 6.75656L19.7434 4.62422L20.6933 3.67775C20.9756 3.39543 21.3585 3.23683 21.7578 3.23683C22.157 3.23683 22.5399 3.39543 22.8223 3.67775C23.1046 3.96007 23.2632 4.34297 23.2632 4.74223C23.2632 5.14149 23.1046 5.52439 22.8223 5.80671L21.8758 6.75656Z" fill="#2E5DBA"/>
</svg>
