<svg width="26" height="17" viewBox="0 0 26 17" fill="none" xmlns="http://www.w3.org/2000/svg">
<path d="M12.9999 5.1C12.0981 5.1 11.2333 5.45821 10.5957 6.09584C9.95808 6.73346 9.59987 7.59826 9.59987 8.5C9.59987 9.40174 9.95808 10.2665 10.5957 10.9042C11.2333 11.5418 12.0981 11.9 12.9999 11.9C13.9016 11.9 14.7664 11.5418 15.404 10.9042C16.0417 10.2665 16.3999 9.40174 16.3999 8.5C16.3999 7.59826 16.0417 6.73346 15.404 6.09584C14.7664 5.45821 13.9016 5.1 12.9999 5.1ZM12.9999 14.1667C11.497 14.1667 10.0556 13.5696 8.99293 12.5069C7.93023 11.4442 7.3332 10.0029 7.3332 8.5C7.3332 6.99711 7.93023 5.55577 8.99293 4.49306C10.0556 3.43036 11.497 2.83333 12.9999 2.83333C14.5028 2.83333 15.9441 3.43036 17.0068 4.49306C18.0695 5.55577 18.6665 6.99711 18.6665 8.5C18.6665 10.0029 18.0695 11.4442 17.0068 12.5069C15.9441 13.5696 14.5028 14.1667 12.9999 14.1667ZM12.9999 0C7.3332 0 2.49387 3.52467 0.533203 8.5C2.49387 13.4753 7.3332 17 12.9999 17C18.6665 17 23.5059 13.4753 25.4665 8.5C23.5059 3.52467 18.6665 0 12.9999 0Z" fill="#8B43A3"/>
</svg>
