<svg width="18" height="18" viewBox="0 0 18 18" fill="none" xmlns="http://www.w3.org/2000/svg">
<path fill-rule="evenodd" clip-rule="evenodd" d="M8.00644 -0.000488263C6.72963 -0.000379486 5.47135 0.305068 4.3366 0.890369C3.20184 1.47567 2.2235 2.32385 1.48321 3.36416C0.742925 4.40446 0.26215 5.60671 0.0809993 6.87061C-0.100152 8.1345 0.0235751 9.4234 0.441857 10.6298C0.860138 11.8361 1.56085 12.9249 2.48552 13.8054C3.41019 14.6859 4.53201 15.3325 5.75739 15.6912C6.98278 16.05 8.27618 16.1105 9.5297 15.8677C10.7832 15.6249 11.9605 15.0858 12.9633 14.2955L16.4036 17.7358C16.5812 17.9074 16.8192 18.0023 17.0662 18.0002C17.3132 17.998 17.5494 17.8989 17.7241 17.7243C17.8987 17.5496 17.9978 17.3134 18 17.0664C18.0021 16.8194 17.9072 16.5814 17.7356 16.4037L14.2953 12.9635C15.226 11.7828 15.8055 10.3639 15.9675 8.86926C16.1295 7.37459 15.8674 5.86451 15.2112 4.51185C14.555 3.15918 13.5312 2.01858 12.2571 1.22058C10.9829 0.422576 9.50986 -0.000589212 8.00644 -0.000488263ZM1.88335 8.00663C1.88335 6.38269 2.52846 4.82526 3.67676 3.67695C4.82506 2.52865 6.3825 1.88354 8.00644 1.88354C9.63039 1.88354 11.1878 2.52865 12.3361 3.67695C13.4844 4.82526 14.1295 6.38269 14.1295 8.00663C14.1295 9.63058 13.4844 11.188 12.3361 12.3363C11.1878 13.4846 9.63039 14.1297 8.00644 14.1297C6.3825 14.1297 4.82506 13.4846 3.67676 12.3363C2.52846 11.188 1.88335 9.63058 1.88335 8.00663Z" fill="#797878"/>
</svg>
