<svg width="20" height="19" viewBox="0 0 20 19" fill="none" xmlns="http://www.w3.org/2000/svg">
<path d="M9.9668 0C7.4567 0.0304565 5.05799 1.04112 3.28296 2.81616C1.50792 4.5912 0.497253 6.9899 0.466797 9.5C0.497253 12.0101 1.50792 14.4088 3.28296 16.1838C5.05799 17.9589 7.4567 18.9695 9.9668 19C12.4769 18.9695 14.8756 17.9589 16.6506 16.1838C18.4257 14.4088 19.4363 12.0101 19.4668 9.5C19.4363 6.9899 18.4257 4.5912 16.6506 2.81616C14.8756 1.04112 12.4769 0.0304565 9.9668 0ZM15.3954 10.1786H10.6454V14.9286H9.28823V10.1786H4.53823V8.82143H9.28823V4.07143H10.6454V8.82143H15.3954V10.1786Z" fill="#4A55B3"/>
</svg>
