<svg width="18" height="23" viewBox="0 0 18 23" fill="none" xmlns="http://www.w3.org/2000/svg">
<path d="M17.5954 3.95101C17.4262 3.55094 17.1447 3.21259 16.7903 2.97257C16.4358 2.73323 16.0041 2.59213 15.5451 2.59213H13.6289V2.26155H10.8515C10.8641 2.1717 10.8711 2.07903 10.8711 1.98568C10.8711 0.890711 9.98038 0 8.88541 0C7.79044 0 6.89973 0.890711 6.89973 1.98568C6.89973 2.07903 6.90674 2.1717 6.91941 2.26155H4.14198V2.59213H2.22574C1.92041 2.59213 1.62563 2.65461 1.35961 2.76759C0.958813 2.93677 0.620506 3.2182 0.380443 3.57268C0.1411 3.92783 0 4.35881 0 4.81787V20.775C0 21.0803 0.0624864 21.3744 0.174791 21.6411C0.344641 22.0412 0.626121 22.3795 0.9806 22.6196C1.33508 22.8596 1.76669 23 2.22574 23H15.5451C15.8504 23 16.1452 22.9382 16.4119 22.8245C16.812 22.6561 17.1504 22.3739 17.3904 22.0194C17.6297 21.665 17.7708 21.2333 17.7708 20.775V4.81787C17.7708 4.51186 17.7083 4.21776 17.5954 3.95101ZM8.88541 1.24869C9.29182 1.24869 9.6224 1.57927 9.6224 1.98568C9.6224 2.08325 9.60273 2.17588 9.56764 2.26155H8.20242C8.16801 2.17593 8.14838 2.08325 8.14838 1.98568C8.14842 1.57927 8.47972 1.24869 8.88541 1.24869ZM16.447 20.775C16.447 20.9013 16.4217 21.0178 16.3761 21.1252C16.3088 21.286 16.1929 21.4249 16.0491 21.5232C15.9045 21.62 15.7346 21.6762 15.5451 21.6762H2.22574C2.09938 21.6762 1.98218 21.6509 1.87477 21.606C1.71404 21.5379 1.57505 21.4221 1.47748 21.2782C1.37991 21.1336 1.32376 20.9637 1.32376 20.7749V4.81787C1.32376 4.69151 1.34905 4.5743 1.39464 4.4669C1.46275 4.30545 1.57716 4.16718 1.72172 4.06961C1.86632 3.97276 2.03617 3.9166 2.2257 3.91588H4.14189V4.19175C4.14189 4.70974 4.56164 5.12949 5.08035 5.12949H12.6904C13.2091 5.12949 13.6288 4.70974 13.6288 4.19175V3.91588H15.545C15.6714 3.91588 15.7886 3.94118 15.896 3.98677C16.0567 4.05487 16.1957 4.16929 16.2933 4.31385C16.3902 4.45913 16.4463 4.6283 16.447 4.81783V20.775Z" fill="#BB3896"/>
<path d="M13.6841 7.77734H4.08691V8.88004H13.6841V7.77734Z" fill="#BB3896"/>
<path d="M13.6841 10.8105H4.08691V11.9132H13.6841V10.8105Z" fill="#BB3896"/>
<path d="M13.6841 13.8442H4.08691V14.9469H13.6841V13.8442Z" fill="#BB3896"/>
<path d="M13.684 17.7051H8.88574V18.8085H13.684V17.7051Z" fill="#BB3896"/>
</svg>
