<svg width="26" height="26" viewBox="0 0 26 26" fill="none" xmlns="http://www.w3.org/2000/svg">
<path d="M21.9771 20.6204L25.7303 24.3716C25.9053 24.5528 26.0022 24.7955 26 25.0475C25.9978 25.2994 25.8967 25.5404 25.7186 25.7186C25.5404 25.8967 25.2994 25.9978 25.0475 26C24.7955 26.0022 24.5528 25.9053 24.3716 25.7303L20.6185 21.9771C18.1659 24.0784 14.9947 25.1481 11.7704 24.9617C8.54615 24.7754 5.51938 23.3474 3.32524 20.9775C1.1311 18.6076 -0.0598409 15.4799 0.00231619 12.2509C0.0644733 9.02182 1.3749 5.94233 3.65861 3.65861C5.94233 1.3749 9.02182 0.0644733 12.2509 0.00231619C15.4799 -0.0598409 18.6076 1.1311 20.9775 3.32524C23.3474 5.51938 24.7754 8.54615 24.9617 11.7704C25.1481 14.9947 24.0784 18.1659 21.9771 20.6185V20.6204ZM12.4914 23.061C15.2947 23.061 17.9831 21.9474 19.9652 19.9652C21.9474 17.9831 23.061 15.2947 23.061 12.4914C23.061 9.68822 21.9474 6.99981 19.9652 5.01764C17.9831 3.03547 15.2947 1.92189 12.4914 1.92189C9.68822 1.92189 6.99981 3.03547 5.01764 5.01764C3.03547 6.99981 1.92189 9.68822 1.92189 12.4914C1.92189 15.2947 3.03547 17.9831 5.01764 19.9652C6.99981 21.9474 9.68822 23.061 12.4914 23.061Z" fill="#969BA6"/>
</svg>
